# xmcd
# Copyright (C) 1995-1998 Ti Kan
#
# Track frame offsets:
#       150
#       85841
#       180895
#
# Disc length: 3680 seconds
#
# Revision: 0
# Processed by: cddbd v1.5.1PL2 Copyright (c) Steve Scherf et al.
# Submitted via: CD-Transfer v1.0
#
DISCID=140e5e03
DTITLE=Goldies Sendung - 
DYEAR=1900
DGENRE=
TTITLE0=Musigparade 13.8.06 Teil 1
TTITLE1=Musigparade 13.8.06 Teil 2
TTITLE2=Musigparade 13.8.06 Teil 3
EXTD=
EXTT0=
EXTT1=
EXTT2=
PLAYORDER=
